<svg style="display: none" aria-hidden="true" xmlns="http://www.w3.org/2000/svg">
  <defs>
    <symbol id="copy" viewBox="0 0 24 24"><title>copy</title><path d="M19 21V7H8v14h11zm0-16c1 0 2 1 2 2v14c0 1-1 2-2 2H8c-1 0-2-1-2-2V7c0-1 1-2 2-2h11zm-3-4v2H4v14H2V3c0-1 1-2 2-2h12z"/></symbol>
    <symbol id="chevron-bottom" viewBox="0 0 20 20"><path transform="rotate(-90 10 10)" d="M7 9.3l-.7.7 5.7 5.7 1.4-1.5L9.2 10l4.2-4.2L12 4.3z"/></symbol>
    <symbol id="close" viewBox="0 0 12 16"><path d="M7.48 8l3.75 3.75-1.48 1.48L6 9.48l-3.75 3.75-1.48-1.48L4.52 8 .77 4.25l1.48-1.48L6 6.52l3.75-3.75 1.48 1.48L7.48 8z"/></symbol>
    <symbol id="import-export" viewBox="10 10 28 28"><path d="M23.7 18.3l-4-4a1 1 0 0 0-1.4 0l-4 4a1 1 0 0 0 1.4 1.4l2.3-2.3V31a1 1 0 0 0 2 0V17.4l2.3 2.3a1 1 0 0 0 1.4 0 1 1 0 0 0 0-1.4zM32.3 26.3L30 28.6V15a1 1 0 0 0-2 0v13.6l-2.3-2.3a1 1 0 0 0-1.4 1.4l4 4a1 1 0 0 0 1.4 0l4-4a1 1 0 0 0-1.4-1.4z"/></symbol>
    <symbol id="error" viewBox="0 0 24 24"><path d="M12 2C6.48 2 2 6.48 2 12s4.48 10 10 10 10-4.48 10-10S17.52 2 12 2zm1 15h-2v-2h2v2zm0-4h-2V7h2v6z"/></symbol>
    <symbol id="gear" viewBox="0 0 16 16"><path d="M14.6 9.5a3 3 0 0 1 1.1-4.1l-1.6-2.8A3 3 0 0 1 9.5 0h-3c0 .5-.2 1-.5 1.5A3 3 0 0 1 2 2.6L.3 5.4c.4.2.8.6 1.1 1a3 3 0 0 1-1.1 4.2l1.6 2.8A3 3 0 0 1 6.5 16h3c0-.5.2-1 .5-1.5a3 3 0 0 1 4.1-1.1l1.6-2.8a3 3 0 0 1-1.1-1zM8 11.2a3.2 3.2 0 1 1 0-6.4 3.2 3.2 0 0 1 0 6.4z"/></symbol>
    <symbol stroke="currentColor" id="arrow-up" viewBox="0 0 24 24"><path stroke-linecap="round" stroke-linejoin="round" stroke-width="2" d="M7 11l5-5m0 0l5 5m-5-5v12"/></symbol>
    <symbol stroke="currentColor" id="arrow-down" viewBox="0 0 24 24"><path stroke-linecap="round" stroke-linejoin="round" stroke-width="2" d="M17 13l-5 5m0 0l-5-5m5 5V6"/></symbol>
  </defs>
</svg>
